G04 #@! TF.GenerationSoftware,KiCad,Pcbnew,(5.99.0-1124-gd78759612)*
G04 #@! TF.CreationDate,2020-05-27T21:00:59-04:00*
G04 #@! TF.ProjectId,bastion-hat,62617374-696f-46e2-9d68-61742e6b6963,rev?*
G04 #@! TF.SameCoordinates,Original*
G04 #@! TF.FileFunction,Soldermask,Top*
G04 #@! TF.FilePolarity,Negative*
%FSLAX46Y46*%
G04 Gerber Fmt 4.6, Leading zero omitted, Abs format (unit mm)*
G04 Created by KiCad (PCBNEW (5.99.0-1124-gd78759612)) date 2020-05-27 21:00:59*
%MOMM*%
%LPD*%
G01*
G04 APERTURE LIST*
%ADD10C,6.000000*%
%ADD11O,1.800000X1.800000*%
%ADD12R,1.800000X1.800000*%
%ADD13C,5.100000*%
%ADD14R,0.590000X0.550000*%
%ADD15R,1.402080X3.202940*%
%ADD16C,1.624000*%
%ADD17R,1.100000X1.100000*%
%ADD18R,2.300000X1.150000*%
%ADD19R,1.100000X1.600000*%
G04 APERTURE END LIST*
D10*
X157520000Y-72870000D03*
X134520000Y-130870000D03*
X134520000Y-72870000D03*
X157520000Y-130870000D03*
D11*
X158790000Y-77740000D03*
X156250000Y-77740000D03*
X158790000Y-95520000D03*
X156250000Y-95520000D03*
X158790000Y-100600000D03*
X156250000Y-100600000D03*
X158790000Y-90440000D03*
X156250000Y-90440000D03*
X158790000Y-118380000D03*
X156250000Y-118380000D03*
X158790000Y-87900000D03*
X156250000Y-87900000D03*
X158790000Y-105680000D03*
X156250000Y-105680000D03*
X158790000Y-82820000D03*
X156250000Y-82820000D03*
X158790000Y-85360000D03*
X156250000Y-85360000D03*
X158790000Y-80280000D03*
X156250000Y-80280000D03*
X158790000Y-103140000D03*
X156250000Y-103140000D03*
X158790000Y-115840000D03*
X156250000Y-115840000D03*
X158790000Y-110760000D03*
X156250000Y-110760000D03*
X158790000Y-92980000D03*
X156250000Y-92980000D03*
X158790000Y-113300000D03*
X156250000Y-113300000D03*
X158790000Y-98060000D03*
X156250000Y-98060000D03*
D12*
X156250000Y-126000000D03*
D11*
X158790000Y-126000000D03*
X156250000Y-120920000D03*
X158790000Y-123460000D03*
X158790000Y-108220000D03*
X156250000Y-108220000D03*
X156250000Y-123460000D03*
X158790000Y-120920000D03*
D13*
X126480000Y-139205000D03*
X159780000Y-139205000D03*
X159780000Y-54805000D03*
X126480000Y-54805000D03*
D14*
X117780000Y-132225000D03*
X117780000Y-130275000D03*
X117780000Y-130925000D03*
X117780000Y-131575000D03*
X119720000Y-132225000D03*
X119720000Y-130275000D03*
X119720000Y-130925000D03*
X119720000Y-131575000D03*
D11*
X140970000Y-152400000D03*
X143510000Y-152400000D03*
X146050000Y-152400000D03*
X148590000Y-152400000D03*
X151130000Y-152400000D03*
X153670000Y-152400000D03*
X156210000Y-152400000D03*
D12*
X158750000Y-152400000D03*
D15*
X139002300Y-59751920D03*
X141001280Y-59751920D03*
X143000260Y-59751920D03*
X145001780Y-59751920D03*
X146998220Y-59751920D03*
X148999740Y-59751920D03*
X150998720Y-59751920D03*
X152997700Y-59751920D03*
X152997700Y-74748080D03*
X150998720Y-74748080D03*
X148999740Y-74748080D03*
X146998220Y-74748080D03*
X145001780Y-74748080D03*
X143000260Y-74748080D03*
X141001280Y-74748080D03*
X139002300Y-74748080D03*
D16*
X116250000Y-91990000D03*
X116250000Y-85090000D03*
X120650000Y-91990000D03*
X120650000Y-85090000D03*
X116250000Y-115650000D03*
X116250000Y-108750000D03*
X120650000Y-115650000D03*
X120650000Y-108750000D03*
G36*
X119912954Y-121494982D02*
G01*
X119998116Y-121551884D01*
X120055018Y-121637046D01*
X120075000Y-121737500D01*
X120075000Y-122262500D01*
X120055018Y-122362954D01*
X119998116Y-122448116D01*
X119912954Y-122505018D01*
X119812500Y-122525000D01*
X119187500Y-122525000D01*
X119087046Y-122505018D01*
X119001884Y-122448116D01*
X118944982Y-122362954D01*
X118925000Y-122262500D01*
X118925000Y-121737500D01*
X118944982Y-121637046D01*
X119001884Y-121551884D01*
X119087046Y-121494982D01*
X119187500Y-121475000D01*
X119812500Y-121475000D01*
X119912954Y-121494982D01*
G37*
G36*
X118162954Y-121494982D02*
G01*
X118248116Y-121551884D01*
X118305018Y-121637046D01*
X118325000Y-121737500D01*
X118325000Y-122262500D01*
X118305018Y-122362954D01*
X118248116Y-122448116D01*
X118162954Y-122505018D01*
X118062500Y-122525000D01*
X117437500Y-122525000D01*
X117337046Y-122505018D01*
X117251884Y-122448116D01*
X117194982Y-122362954D01*
X117175000Y-122262500D01*
X117175000Y-121737500D01*
X117194982Y-121637046D01*
X117251884Y-121551884D01*
X117337046Y-121494982D01*
X117437500Y-121475000D01*
X118062500Y-121475000D01*
X118162954Y-121494982D01*
G37*
G36*
X118287954Y-125994982D02*
G01*
X118373116Y-126051884D01*
X118430018Y-126137046D01*
X118450000Y-126237500D01*
X118450000Y-126762500D01*
X118430018Y-126862954D01*
X118373116Y-126948116D01*
X118287954Y-127005018D01*
X118187500Y-127025000D01*
X117562500Y-127025000D01*
X117462046Y-127005018D01*
X117376884Y-126948116D01*
X117319982Y-126862954D01*
X117300000Y-126762500D01*
X117300000Y-126237500D01*
X117319982Y-126137046D01*
X117376884Y-126051884D01*
X117462046Y-125994982D01*
X117562500Y-125975000D01*
X118187500Y-125975000D01*
X118287954Y-125994982D01*
G37*
G36*
X120037954Y-125994982D02*
G01*
X120123116Y-126051884D01*
X120180018Y-126137046D01*
X120200000Y-126237500D01*
X120200000Y-126762500D01*
X120180018Y-126862954D01*
X120123116Y-126948116D01*
X120037954Y-127005018D01*
X119937500Y-127025000D01*
X119312500Y-127025000D01*
X119212046Y-127005018D01*
X119126884Y-126948116D01*
X119069982Y-126862954D01*
X119050000Y-126762500D01*
X119050000Y-126237500D01*
X119069982Y-126137046D01*
X119126884Y-126051884D01*
X119212046Y-125994982D01*
X119312500Y-125975000D01*
X119937500Y-125975000D01*
X120037954Y-125994982D01*
G37*
D11*
X125730000Y-71120000D03*
X125730000Y-73660000D03*
X125730000Y-76200000D03*
X125730000Y-78740000D03*
X125730000Y-81280000D03*
X125730000Y-83820000D03*
X125730000Y-86360000D03*
X125730000Y-88900000D03*
X125730000Y-91440000D03*
X125730000Y-93980000D03*
X125730000Y-96520000D03*
X125730000Y-99060000D03*
X125730000Y-101600000D03*
X125730000Y-104140000D03*
X125730000Y-106680000D03*
X125730000Y-109220000D03*
X125730000Y-111760000D03*
X125730000Y-114300000D03*
X125730000Y-116840000D03*
X125730000Y-119380000D03*
X125730000Y-121920000D03*
X125730000Y-124460000D03*
X125730000Y-127000000D03*
X125730000Y-129540000D03*
D12*
X125730000Y-132080000D03*
X130810000Y-152400000D03*
G36*
X125905382Y-151030299D02*
G01*
X125991895Y-151088105D01*
X126049701Y-151174618D01*
X126070000Y-151276667D01*
X126070000Y-154243333D01*
X126049701Y-154345382D01*
X125991895Y-154431895D01*
X125905382Y-154489701D01*
X125803333Y-154510000D01*
X124736667Y-154510000D01*
X124634618Y-154489701D01*
X124548105Y-154431895D01*
X124490299Y-154345382D01*
X124470000Y-154243333D01*
X124470000Y-151276667D01*
X124490299Y-151174618D01*
X124548105Y-151088105D01*
X124634618Y-151030299D01*
X124736667Y-151010000D01*
X125803333Y-151010000D01*
X125905382Y-151030299D01*
G37*
G36*
X119205382Y-151030299D02*
G01*
X119291895Y-151088105D01*
X119349701Y-151174618D01*
X119370000Y-151276667D01*
X119370000Y-154243333D01*
X119349701Y-154345382D01*
X119291895Y-154431895D01*
X119205382Y-154489701D01*
X119103333Y-154510000D01*
X118036667Y-154510000D01*
X117934618Y-154489701D01*
X117848105Y-154431895D01*
X117790299Y-154345382D01*
X117770000Y-154243333D01*
X117770000Y-151276667D01*
X117790299Y-151174618D01*
X117848105Y-151088105D01*
X117934618Y-151030299D01*
X118036667Y-151010000D01*
X119103333Y-151010000D01*
X119205382Y-151030299D01*
G37*
G36*
X123300238Y-145230933D02*
G01*
X123389454Y-145290546D01*
X123449067Y-145379762D01*
X123470000Y-145485000D01*
X123470000Y-148535000D01*
X123449067Y-148640238D01*
X123389454Y-148729454D01*
X123300238Y-148789067D01*
X123195000Y-148810000D01*
X122645000Y-148810000D01*
X122539762Y-148789067D01*
X122450546Y-148729454D01*
X122390933Y-148640238D01*
X122370000Y-148535000D01*
X122370000Y-145485000D01*
X122390933Y-145379762D01*
X122450546Y-145290546D01*
X122539762Y-145230933D01*
X122645000Y-145210000D01*
X123195000Y-145210000D01*
X123300238Y-145230933D01*
G37*
G36*
X121300238Y-145230933D02*
G01*
X121389454Y-145290546D01*
X121449067Y-145379762D01*
X121470000Y-145485000D01*
X121470000Y-148535000D01*
X121449067Y-148640238D01*
X121389454Y-148729454D01*
X121300238Y-148789067D01*
X121195000Y-148810000D01*
X120645000Y-148810000D01*
X120539762Y-148789067D01*
X120450546Y-148729454D01*
X120390933Y-148640238D01*
X120370000Y-148535000D01*
X120370000Y-145485000D01*
X120390933Y-145379762D01*
X120450546Y-145290546D01*
X120539762Y-145230933D01*
X120645000Y-145210000D01*
X121195000Y-145210000D01*
X121300238Y-145230933D01*
G37*
X134620000Y-152400000D03*
D17*
X147750000Y-54500000D03*
X144750000Y-54500000D03*
D18*
X146250000Y-53025000D03*
X146250000Y-55975000D03*
D12*
X152500000Y-54500000D03*
D19*
X116510000Y-76110000D03*
X119710000Y-76110000D03*
X116510000Y-71210000D03*
X119710000Y-71210000D03*
G36*
X131617954Y-146814982D02*
G01*
X131703116Y-146871884D01*
X131760018Y-146957046D01*
X131780000Y-147057500D01*
X131780000Y-147582500D01*
X131760018Y-147682954D01*
X131703116Y-147768116D01*
X131617954Y-147825018D01*
X131517500Y-147845000D01*
X130892500Y-147845000D01*
X130792046Y-147825018D01*
X130706884Y-147768116D01*
X130649982Y-147682954D01*
X130630000Y-147582500D01*
X130630000Y-147057500D01*
X130649982Y-146957046D01*
X130706884Y-146871884D01*
X130792046Y-146814982D01*
X130892500Y-146795000D01*
X131517500Y-146795000D01*
X131617954Y-146814982D01*
G37*
G36*
X133367954Y-146814982D02*
G01*
X133453116Y-146871884D01*
X133510018Y-146957046D01*
X133530000Y-147057500D01*
X133530000Y-147582500D01*
X133510018Y-147682954D01*
X133453116Y-147768116D01*
X133367954Y-147825018D01*
X133267500Y-147845000D01*
X132642500Y-147845000D01*
X132542046Y-147825018D01*
X132456884Y-147768116D01*
X132399982Y-147682954D01*
X132380000Y-147582500D01*
X132380000Y-147057500D01*
X132399982Y-146957046D01*
X132456884Y-146871884D01*
X132542046Y-146814982D01*
X132642500Y-146795000D01*
X133267500Y-146795000D01*
X133367954Y-146814982D01*
G37*
M02*
