G04 #@! TF.GenerationSoftware,KiCad,Pcbnew,(5.99.0-1124-gd78759612)*
G04 #@! TF.CreationDate,2020-05-27T21:00:59-04:00*
G04 #@! TF.ProjectId,bastion-hat,62617374-696f-46e2-9d68-61742e6b6963,rev?*
G04 #@! TF.SameCoordinates,Original*
G04 #@! TF.FileFunction,Paste,Top*
G04 #@! TF.FilePolarity,Positive*
%FSLAX46Y46*%
G04 Gerber Fmt 4.6, Leading zero omitted, Abs format (unit mm)*
G04 Created by KiCad (PCBNEW (5.99.0-1124-gd78759612)) date 2020-05-27 21:00:59*
%MOMM*%
%LPD*%
G01*
G04 APERTURE LIST*
%ADD10R,0.490000X0.450000*%
%ADD11R,1.198880X2.999740*%
%ADD12R,1.000000X1.000000*%
%ADD13R,2.200000X1.050000*%
%ADD14R,1.000000X1.500000*%
G04 APERTURE END LIST*
D10*
X117780000Y-132225000D03*
X117780000Y-130275000D03*
X117780000Y-130925000D03*
X117780000Y-131575000D03*
X119720000Y-132225000D03*
X119720000Y-130275000D03*
X119720000Y-130925000D03*
X119720000Y-131575000D03*
D11*
X139002300Y-59751920D03*
X141001280Y-59751920D03*
X143000260Y-59751920D03*
X145001780Y-59751920D03*
X146998220Y-59751920D03*
X148999740Y-59751920D03*
X150998720Y-59751920D03*
X152997700Y-59751920D03*
X152997700Y-74748080D03*
X150998720Y-74748080D03*
X148999740Y-74748080D03*
X146998220Y-74748080D03*
X145001780Y-74748080D03*
X143000260Y-74748080D03*
X141001280Y-74748080D03*
X139002300Y-74748080D03*
G36*
X119878387Y-121543079D02*
G01*
X119955438Y-121594562D01*
X120006921Y-121671613D01*
X120025000Y-121762500D01*
X120025000Y-122237500D01*
X120006921Y-122328387D01*
X119955438Y-122405438D01*
X119878387Y-122456921D01*
X119787500Y-122475000D01*
X119212500Y-122475000D01*
X119121613Y-122456921D01*
X119044562Y-122405438D01*
X118993079Y-122328387D01*
X118975000Y-122237500D01*
X118975000Y-121762500D01*
X118993079Y-121671613D01*
X119044562Y-121594562D01*
X119121613Y-121543079D01*
X119212500Y-121525000D01*
X119787500Y-121525000D01*
X119878387Y-121543079D01*
G37*
G36*
X118128387Y-121543079D02*
G01*
X118205438Y-121594562D01*
X118256921Y-121671613D01*
X118275000Y-121762500D01*
X118275000Y-122237500D01*
X118256921Y-122328387D01*
X118205438Y-122405438D01*
X118128387Y-122456921D01*
X118037500Y-122475000D01*
X117462500Y-122475000D01*
X117371613Y-122456921D01*
X117294562Y-122405438D01*
X117243079Y-122328387D01*
X117225000Y-122237500D01*
X117225000Y-121762500D01*
X117243079Y-121671613D01*
X117294562Y-121594562D01*
X117371613Y-121543079D01*
X117462500Y-121525000D01*
X118037500Y-121525000D01*
X118128387Y-121543079D01*
G37*
G36*
X118253387Y-126043079D02*
G01*
X118330438Y-126094562D01*
X118381921Y-126171613D01*
X118400000Y-126262500D01*
X118400000Y-126737500D01*
X118381921Y-126828387D01*
X118330438Y-126905438D01*
X118253387Y-126956921D01*
X118162500Y-126975000D01*
X117587500Y-126975000D01*
X117496613Y-126956921D01*
X117419562Y-126905438D01*
X117368079Y-126828387D01*
X117350000Y-126737500D01*
X117350000Y-126262500D01*
X117368079Y-126171613D01*
X117419562Y-126094562D01*
X117496613Y-126043079D01*
X117587500Y-126025000D01*
X118162500Y-126025000D01*
X118253387Y-126043079D01*
G37*
G36*
X120003387Y-126043079D02*
G01*
X120080438Y-126094562D01*
X120131921Y-126171613D01*
X120150000Y-126262500D01*
X120150000Y-126737500D01*
X120131921Y-126828387D01*
X120080438Y-126905438D01*
X120003387Y-126956921D01*
X119912500Y-126975000D01*
X119337500Y-126975000D01*
X119246613Y-126956921D01*
X119169562Y-126905438D01*
X119118079Y-126828387D01*
X119100000Y-126737500D01*
X119100000Y-126262500D01*
X119118079Y-126171613D01*
X119169562Y-126094562D01*
X119246613Y-126043079D01*
X119337500Y-126025000D01*
X119912500Y-126025000D01*
X120003387Y-126043079D01*
G37*
G36*
X125865671Y-151079030D02*
G01*
X125946777Y-151133223D01*
X126000970Y-151214329D01*
X126020000Y-151310000D01*
X126020000Y-154210000D01*
X126000970Y-154305671D01*
X125946777Y-154386777D01*
X125865671Y-154440970D01*
X125770000Y-154460000D01*
X124770000Y-154460000D01*
X124674329Y-154440970D01*
X124593223Y-154386777D01*
X124539030Y-154305671D01*
X124520000Y-154210000D01*
X124520000Y-151310000D01*
X124539030Y-151214329D01*
X124593223Y-151133223D01*
X124674329Y-151079030D01*
X124770000Y-151060000D01*
X125770000Y-151060000D01*
X125865671Y-151079030D01*
G37*
G36*
X119165671Y-151079030D02*
G01*
X119246777Y-151133223D01*
X119300970Y-151214329D01*
X119320000Y-151310000D01*
X119320000Y-154210000D01*
X119300970Y-154305671D01*
X119246777Y-154386777D01*
X119165671Y-154440970D01*
X119070000Y-154460000D01*
X118070000Y-154460000D01*
X117974329Y-154440970D01*
X117893223Y-154386777D01*
X117839030Y-154305671D01*
X117820000Y-154210000D01*
X117820000Y-151310000D01*
X117839030Y-151214329D01*
X117893223Y-151133223D01*
X117974329Y-151079030D01*
X118070000Y-151060000D01*
X119070000Y-151060000D01*
X119165671Y-151079030D01*
G37*
G36*
X123265671Y-145279030D02*
G01*
X123346777Y-145333223D01*
X123400970Y-145414329D01*
X123420000Y-145510000D01*
X123420000Y-148510000D01*
X123400970Y-148605671D01*
X123346777Y-148686777D01*
X123265671Y-148740970D01*
X123170000Y-148760000D01*
X122670000Y-148760000D01*
X122574329Y-148740970D01*
X122493223Y-148686777D01*
X122439030Y-148605671D01*
X122420000Y-148510000D01*
X122420000Y-145510000D01*
X122439030Y-145414329D01*
X122493223Y-145333223D01*
X122574329Y-145279030D01*
X122670000Y-145260000D01*
X123170000Y-145260000D01*
X123265671Y-145279030D01*
G37*
G36*
X121265671Y-145279030D02*
G01*
X121346777Y-145333223D01*
X121400970Y-145414329D01*
X121420000Y-145510000D01*
X121420000Y-148510000D01*
X121400970Y-148605671D01*
X121346777Y-148686777D01*
X121265671Y-148740970D01*
X121170000Y-148760000D01*
X120670000Y-148760000D01*
X120574329Y-148740970D01*
X120493223Y-148686777D01*
X120439030Y-148605671D01*
X120420000Y-148510000D01*
X120420000Y-145510000D01*
X120439030Y-145414329D01*
X120493223Y-145333223D01*
X120574329Y-145279030D01*
X120670000Y-145260000D01*
X121170000Y-145260000D01*
X121265671Y-145279030D01*
G37*
D12*
X147750000Y-54500000D03*
X144750000Y-54500000D03*
D13*
X146250000Y-53025000D03*
X146250000Y-55975000D03*
D14*
X116510000Y-76110000D03*
X119710000Y-76110000D03*
X116510000Y-71210000D03*
X119710000Y-71210000D03*
G36*
X131583387Y-146863079D02*
G01*
X131660438Y-146914562D01*
X131711921Y-146991613D01*
X131730000Y-147082500D01*
X131730000Y-147557500D01*
X131711921Y-147648387D01*
X131660438Y-147725438D01*
X131583387Y-147776921D01*
X131492500Y-147795000D01*
X130917500Y-147795000D01*
X130826613Y-147776921D01*
X130749562Y-147725438D01*
X130698079Y-147648387D01*
X130680000Y-147557500D01*
X130680000Y-147082500D01*
X130698079Y-146991613D01*
X130749562Y-146914562D01*
X130826613Y-146863079D01*
X130917500Y-146845000D01*
X131492500Y-146845000D01*
X131583387Y-146863079D01*
G37*
G36*
X133333387Y-146863079D02*
G01*
X133410438Y-146914562D01*
X133461921Y-146991613D01*
X133480000Y-147082500D01*
X133480000Y-147557500D01*
X133461921Y-147648387D01*
X133410438Y-147725438D01*
X133333387Y-147776921D01*
X133242500Y-147795000D01*
X132667500Y-147795000D01*
X132576613Y-147776921D01*
X132499562Y-147725438D01*
X132448079Y-147648387D01*
X132430000Y-147557500D01*
X132430000Y-147082500D01*
X132448079Y-146991613D01*
X132499562Y-146914562D01*
X132576613Y-146863079D01*
X132667500Y-146845000D01*
X133242500Y-146845000D01*
X133333387Y-146863079D01*
G37*
M02*
