M48
; DRILL file {KiCad (5.99.0-1124-gd78759612)} date 05/27/20 21:01:01
; FORMAT={-:-/ absolute / inch / decimal}
; #@! TF.CreationDate,2020-05-27T21:01:01-04:00
; #@! TF.GenerationSoftware,Kicad,Pcbnew,(5.99.0-1124-gd78759612)
; #@! TF.FileFunction,Plated,1,2,PTH
FMAT,2
INCH
T1C0.0157
T2C0.0300
T3C0.0394
T4C0.1181
%
G90
G05
T1
X4.5472Y-4.0059
X4.5866Y-3.0807
X4.5866Y-5.3051
X4.7638Y-4.8031
X4.8031Y-5.2165
X5.0591Y-5.748
X5.3445Y-2.2343
X5.3543Y-4.5472
X5.3937Y-2.9823
X5.561Y-4.9606
X5.7008Y-5.0551
X5.7677Y-3.0512
X5.8071Y-5.6299
X5.9646Y-4.9606
X5.9744Y-5.4232
X6.0551Y-5.0709
T2
X4.5768Y-3.35
X4.5768Y-3.6217
X4.75Y-3.35
X4.75Y-3.6217
X4.5768Y-4.2815
X4.5768Y-4.5531
X4.75Y-4.2815
X4.75Y-4.5531
T3
X5.55Y-6.0
X5.65Y-6.0
X5.75Y-6.0
X5.85Y-6.0
X5.95Y-6.0
X6.05Y-6.0
X6.15Y-6.0
X6.25Y-6.0
X4.95Y-2.8
X4.95Y-2.9
X4.95Y-3.0
X4.95Y-3.1
X4.95Y-3.2
X4.95Y-3.3
X4.95Y-3.4
X4.95Y-3.5
X4.95Y-3.6
X4.95Y-3.7
X4.95Y-3.8
X4.95Y-3.9
X4.95Y-4.0
X4.95Y-4.1
X4.95Y-4.2
X4.95Y-4.3
X4.95Y-4.4
X4.95Y-4.5
X4.95Y-4.6
X4.95Y-4.7
X4.95Y-4.8
X4.95Y-4.9
X4.95Y-5.0
X4.95Y-5.1
X4.95Y-5.2
X5.15Y-6.0
X6.1516Y-3.0606
X6.1516Y-3.1606
X6.1516Y-3.2606
X6.1516Y-3.3606
X6.1516Y-3.4606
X6.1516Y-3.5606
X6.1516Y-3.6606
X6.1516Y-3.7606
X6.1516Y-3.8606
X6.1516Y-3.9606
X6.1516Y-4.0606
X6.1516Y-4.1606
X6.1516Y-4.2606
X6.1516Y-4.3606
X6.1516Y-4.4606
X6.1516Y-4.5606
X6.1516Y-4.6606
X6.1516Y-4.7606
X6.1516Y-4.8606
X6.1516Y-4.9606
X6.2516Y-3.0606
X6.2516Y-3.1606
X6.2516Y-3.2606
X6.2516Y-3.3606
X6.2516Y-3.4606
X6.2516Y-3.5606
X6.2516Y-3.6606
X6.2516Y-3.7606
X6.2516Y-3.8606
X6.2516Y-3.9606
X6.2516Y-4.0606
X6.2516Y-4.1606
X6.2516Y-4.2606
X6.2516Y-4.3606
X6.2516Y-4.4606
X6.2516Y-4.5606
X6.2516Y-4.6606
X6.2516Y-4.7606
X6.2516Y-4.8606
X6.2516Y-4.9606
X5.3Y-6.0
X6.0039Y-2.1457
T4
X4.9795Y-2.1577
X4.9795Y-5.4805
X6.2906Y-2.1577
X6.2906Y-5.4805
T0
M30
